<?xml version="1.0" encoding="utf-8"?>
<!-- Generator: Adobe Illustrator 17.1.0, SVG Export Plug-In . SVG Version: 6.00 Build 0)  -->
<!DOCTYPE svg PUBLIC "-//W3C//DTD SVG 1.1//EN" "http://www.w3.org/Graphics/SVG/1.1/DTD/svg11.dtd">
<svg version="1.1" id="Layer_1" xmlns="http://www.w3.org/2000/svg" xmlns:xlink="http://www.w3.org/1999/xlink" x="0px" y="0px"
	 viewBox="0 0 200 200" enable-background="new 0 0 200 200" xml:space="preserve">
<path display="none" d="M399.205,522.23c0.181,5.941-1.444,7.229-7.146,5.983c-2.74-0.599-5.597-2.376-8.184,0.974
	c-0.535,0.692-3.459,0.154-4.893-0.579c-4.117-2.105-7.997-4.67-12.048-6.913c-2.005-1.11-4.182-1.91-6.547-2.969
	c-4.504,8.289-5.475,17.189-7.217,25.924c-2.289,11.474-4.995,22.87-7.797,34.232c-0.334,1.356-2.261,2.864-3.698,3.183
	c-0.77,0.171-2.66-1.877-3.039-3.21c-5.092-17.894-8.782-36.04-9.689-54.699c-0.274-5.632-0.147-11.688-2.207-16.732
	c-2.977-7.29,1.049-12.41,3.203-18.274c0.744-2.025,1.357-4.115,2.284-6.053c1.43-2.991-0.116-4.582-2.345-6.178
	c-5.122-3.667-10.21-7.387-15.212-11.215c-5.064-3.875-5.174-4.928-0.816-9.905c6.447-7.363,12.972-14.66,19.587-21.871
	c2.565-2.796,2.397-5.079-0.291-7.616c-4.408-4.163-8.688-8.461-12.883-12.566c-6.289,5.093-12.144,9.836-18.623,15.083
	c-5.925-9.463-11.431-18.077-16.741-26.81c-2.896-4.764-6.298-7.988-12.463-6.759c-3.078,0.613-6.28,0.822-9.426,0.829
	c-5.875,0.012-6.209-1.104-5.744-6.918c0.666-8.328,0.504-16.723,0.708-25.659c-3.033,0.53-4.736,0.827-8.146,1.423
	c1.535-2.762,2.484-4.47,3.869-6.962c-4.148-0.565-8.39-1.443-12.662-1.63c-3.436-0.15-4.85-1.773-3.865-4.65
	c3.761-10.993,7.507-22.013,11.934-32.745c2.1-5.092,4.983-4.923,8.561-0.663c6.07,7.227,11.763,14.842,18.41,21.499
	c11.632,11.648,26.668,18.366,40.479,26.912c9.915,6.135,20.504,6.868,31.315,8.221c4.088,0.512,8.213,1.476,12.059,2.927
	c3.206,1.209,5.62,0.965,8.287-1.072c5.657-4.321,11.454-8.459,17.219-12.636c2.61-1.891,4.846-2.652,8.554-1.262
	c5.478,2.054,11.612,2.435,17.501,3.291c4.075,0.592,8.259,0.511,12.299,1.252c2.725,0.5,4.598,2.273,2.714,5.441
	c-3.791,6.376-7.776,12.643-11.393,19.117c-6.14,10.99-12.153,22.054-18.027,33.188c-2.97,5.63-7.102,10.969-5.85,18.018
	c0.079,0.443-0.031,1.184-0.328,1.392c-5.491,3.837-1.757,7.178,0.402,10.777c5.834,9.726,9.937,20.119,12.452,31.231
	c1.009,4.459,3.536,8.559,5.18,12.896c1.112,2.932,2.192,5.936,2.755,9.005c1.077,5.874,0.159,6.927-6.068,7.622
	c0.323,1.453,1.013,2.894,0.858,4.238c-0.238,2.05-1.06,4.033-1.634,6.044c-1.451-0.913-2.918-1.802-4.343-2.753
	c-0.538-0.359-0.981-0.862-1.464-1.302c-1.65-4.74-2.329-10.168-5.12-14.096c-13.752-19.348-27.925-38.403-42.27-57.32
	c-3.904-5.148-8.917-9.455-13.507-14.237c-7.075,8.235-13.526,15.743-20.558,23.928c6.092,4.579,11.776,8.852,17.403,13.082
	c1.493-2.639,2.483-4.389,3.182-5.624c5.207,3.996,9.961,7.622,14.689,11.282c3.012,2.332,6.185,4.502,8.941,7.109
	C374.34,498.307,386.751,510.292,399.205,522.23z M326.678,411.786c6.25,7.006,12.565,14.018,18.8,21.1
	c3.905,4.435,6.132,10.656,12.479,11.615c0.25,2.543-0.295,5.233,0.792,6.765c9.397,13.24,19.08,26.279,28.696,39.363
	c4.699,6.394,9.415,12.776,14.191,19.112c0.576,0.764,1.579,1.207,2.384,1.798c0.462-0.943,1.391-1.938,1.294-2.82
	c-0.233-2.126-0.794-4.251-1.493-6.284c-2.187-6.369-4.47-12.705-6.771-19.034c-2.189-6.019-4.086-12.178-6.739-17.988
	c-9.906-21.697-20.064-43.279-30.142-64.898c-1.433-3.073-2.949-6.108-4.151-8.589c-1.115,1.821-1.655,3.859-2.938,4.587
	c-4.371,2.48-9.145,4.254-13.498,6.761C335.012,405.907,330.748,409.072,326.678,411.786z M334.792,385.687
	c-0.01-0.606-0.02-1.211-0.031-1.817c-6.137-4.994-13.193-7.217-21.138-8.296c-13.956-1.894-27.793-4.693-41.642-7.314
	c-2.936-0.556-5.708-1.976-9.045-3.173c0.147,9.007,0.277,17.011,0.417,25.591c4.997-0.086,9.937-0.538,14.814-0.166
	c6.933,0.529,13.976,3.022,20.69,2.242C310.947,391.351,322.826,388.142,334.792,385.687z M254.384,321.892
	c-0.684,0.083-1.368,0.165-2.052,0.248c-2.922,8.551-5.971,17.063-8.695,25.677c-0.907,2.866,1.434,3.32,3.749,3.938
	c9.915,2.648,19.774,5.512,29.617,8.423c0.947,0.28,2.383,1.507,2.317,2.166c-0.314,3.122,1.909,2.94,3.773,3.362
	c2.759,0.624,5.492,1.383,8.273,1.88c3.428,0.613,6.892,1.037,10.345,1.502c3.238,0.436,6.483,0.82,9.725,1.227
	C288.767,358.142,268.772,343.448,254.384,321.892z M386.511,372.587c-1.301-0.087-1.71-0.249-1.934-0.11
	c-7.623,4.692-15.282,9.331-22.748,14.262c-0.692,0.457-0.598,2.979-0.094,4.23c3.651,9.068,7.378,18.111,11.332,27.051
	c2.694,6.092,5.793,12.006,8.711,17.999c0.529-0.102,1.057-0.205,1.586-0.307C386.28,414.759,386.166,393.657,386.511,372.587z
	 M392.256,368.844c-0.622,18.398-1.23,36.389-1.839,54.379c0.414,0.114,0.828,0.229,1.242,0.343
	c8.973-16.906,20.558-32.427,27.464-51.323C409.535,371.03,401.061,369.958,392.256,368.844z M387.299,521.434
	c0.198-0.487,0.396-0.975,0.595-1.462c-0.752-0.989-1.397-2.086-2.274-2.947c-4.607-4.524-9.243-9.02-13.927-13.464
	c-3.358-3.186-6.458-6.831-10.311-9.259c-4.204-2.65-9.209-3.997-13.74-6.172c-3.081-1.479-5.948-3.406-9.466-5.457
	c-1.698,4.673-3.059,8.714-4.638,12.668c-1.169,2.926-0.382,4.497,2.527,5.8c12.254,5.488,24.313,11.422,36.662,16.678
	C377.274,519.755,382.424,520.271,387.299,521.434z M342.538,568.304c4.199-17.595,8.104-33.875,11.913-50.176
	c0.178-0.762-0.24-2.236-0.804-2.512c-6.869-3.355-13.816-6.548-21.742-10.249C335.399,526.968,334.425,547.62,342.538,568.304z
	 M343.826,393.933c-2.046-4.236-4.441-6.069-8.826-3.748c-1.993,1.055-4.47,1.22-6.743,1.715
	c-11.109,2.416-22.217,4.836-33.342,7.173c-1.51,0.317-3.117,0.171-6.545,0.322c5.442,7.758,10.09,14.383,14.956,21.322
	c2.285-1.806,3.644-2.752,4.856-3.859c7.725-7.056,15.398-14.169,23.133-21.214c3.066-2.793,6.156-3.855,8.681,0.838
	C341.387,395.556,342.478,394.83,343.826,393.933z M357.334,384.387c0.072-0.563,0.144-1.125,0.216-1.688
	c-5.976-1.426-11.952-2.852-17.928-4.279c-0.269,0.696-0.537,1.392-0.806,2.089c4.002,1.975,7.866,4.388,12.073,5.718
	C352.666,386.789,355.164,385.07,357.334,384.387z"/>
<g display="none">
	<line display="inline" fill="none" stroke="#FF0000" stroke-miterlimit="10" x1="649.338" y1="449" x2="671.694" y2="413.2"/>
	<line display="inline" fill="none" stroke="#FF0000" stroke-miterlimit="10" x1="671.694" y1="413.2" x2="755.586" y2="493.172"/>
	
		<line display="inline" fill="none" stroke="#FF0000" stroke-miterlimit="10" x1="755.586" y1="493.172" x2="650.761" y2="306.509"/>
	<line display="inline" fill="none" stroke="#FF0000" stroke-miterlimit="10" x1="755.586" y1="493.172" x2="702.462" y2="273.18"/>
	<line display="inline" fill="none" stroke="#FF0000" stroke-miterlimit="10" x1="702.462" y1="273.18" x2="650.761" y2="306.509"/>
	<line display="inline" fill="none" stroke="#FF0000" stroke-miterlimit="10" x1="702.462" y1="273.18" x2="746.69" y2="243.661"/>
	<line display="inline" fill="none" stroke="#FF0000" stroke-miterlimit="10" x1="746.69" y1="243.661" x2="724.778" y2="365.593"/>
	<line display="inline" fill="none" stroke="#FF0000" stroke-miterlimit="10" x1="746.69" y1="243.661" x2="784.992" y2="250.735"/>
	
		<line display="inline" fill="none" stroke="#FF0000" stroke-miterlimit="10" x1="784.992" y1="250.735" x2="724.778" y2="365.593"/>
	
		<line display="inline" fill="none" stroke="#FF0000" stroke-miterlimit="10" x1="650.761" y1="306.509" x2="610.627" y2="333.829"/>
	<line display="inline" fill="none" stroke="#FF0000" stroke-miterlimit="10" x1="610.627" y1="333.829" x2="586.39" y2="295.088"/>
	<line display="inline" fill="none" stroke="#FF0000" stroke-miterlimit="10" x1="586.39" y1="295.088" x2="689.887" y2="281.287"/>
	<line display="inline" fill="none" stroke="#FF0000" stroke-miterlimit="10" x1="689.887" y1="281.287" x2="535.95" y2="243.661"/>
	<line display="inline" fill="none" stroke="#FF0000" stroke-miterlimit="10" x1="533.5" y1="244" x2="533.5" y2="296"/>
	<line display="inline" fill="none" stroke="#FF0000" stroke-miterlimit="10" x1="535" y1="298.5" x2="599" y2="298.5"/>
	
		<line display="inline" fill="none" stroke="#FF0000" stroke-miterlimit="10" x1="689.887" y1="281.287" x2="482.508" y2="232.564"/>
	
		<line display="inline" fill="none" stroke="#FF0000" stroke-miterlimit="10" x1="482.508" y1="232.564" x2="499.609" y2="174.846"/>
	
		<line display="inline" fill="none" stroke="#FF0000" stroke-miterlimit="10" x1="499.609" y1="174.846" x2="689.887" y2="281.287"/>
	<line display="inline" fill="none" stroke="#FF0000" stroke-miterlimit="10" x1="649.338" y1="449" x2="659.402" y2="567.114"/>
	
		<line display="inline" fill="none" stroke="#FF0000" stroke-miterlimit="10" x1="659.402" y1="567.114" x2="702.462" y2="471.086"/>
</g>
<polyline fill="none" stroke="#FFFFFF" stroke-width="8" stroke-linejoin="round" stroke-miterlimit="10" points="196.53,53.372 
	100,149.902 3.47,53.372 "/>
</svg>
