<svg id="Layer_1" data-name="Layer 1" xmlns="http://www.w3.org/2000/svg" viewBox="0 0 911.66 994.87"><defs><style>.cls-1{fill:none;stroke:#000;stroke-linejoin:round;stroke-width:8px;}</style></defs><title>TSG Logo</title><polyline class="cls-1" points="688.67 662.64 658.32 734.96 732.42 765.86 698.03 990.87 698.03 990.87 658.32 734.96 882.3 828.46 628.07 412.27 681.33 500.61 604.78 590 605.09 591.07 882.3 828.46 762.49 330.59"/><line class="cls-1" x1="835.02" y1="303.57" x2="817.42" y2="558.87"/><polyline class="cls-1" points="826.22 431.22 907.66 334.5 835.02 303.57 762.01 330.24 760.29 331.28 626.48 413.05"/><polyline class="cls-1" points="747.25 339.25 4 4 55.94 261.48 706.14 364.37"/><polyline id="_2" data-name="2" class="cls-1" points="152.49 275.24 261.67 441.31 657.79 393.92"/><polyline id="_1" data-name="1" class="cls-1" points="345.41 431.22 460.55 505.98 639.49 431.22"/></svg>